<svg width="776" height="728" viewBox="0 0 776 728" fill="none" xmlns="http://www.w3.org/2000/svg">
<path d="M383.974 0.302205C396.343 -0.267613 411.878 0.0191398 424.238 0.738764C517.888 6.19017 607.081 43.8937 672.61 111.884C725.519 166.774 761.551 237.242 772.105 313.09C775.725 339.172 774.862 368.343 774.829 394.773L774.659 495.222C775.179 572.625 775.151 650.028 774.581 727.432C770.644 727.115 764.307 727.294 760.227 727.298L734.851 727.326L656.207 727.298L382.706 727.266C351.307 726.931 319.403 727.409 287.94 727.344L0 727.317C0.572043 720.7 0.0583568 704.896 0.0569784 697.378L0.0491681 634.983V434.192L0.0105726 378.471C-0.0101037 346.447 0.362524 324.155 7.05153 292.561C21.6306 225.726 54.7788 164.365 102.683 115.537C177.923 38.0273 277.059 1.89034 383.974 0.302205ZM542.63 627.548C542.649 635.636 543.274 654.114 542.672 661.333C573.93 660.671 605.808 661.576 637.19 661.319C656.065 661.167 679.094 660.156 697.693 661.186L697.721 471.225L697.803 397.632C697.845 357.384 699.476 333.02 689.124 293.227C675.133 241.532 647.776 194.432 609.81 156.663C552.55 98.7087 474.458 66.1193 392.994 66.1809C389.534 66.1781 383.864 66.1405 380.487 66.4309C371.515 66.9681 361.673 67.4588 352.819 68.5222C308.077 73.8665 264.965 88.5903 226.299 111.732C218.536 116.396 207.997 122.793 201.243 129.005C200.157 130.004 200.024 131.454 200.09 132.863C201.397 135.244 204.63 135.374 207.081 134.89C315.229 113.541 447.29 127.64 511.45 230.065C526.048 253.454 535.991 279.441 540.733 306.6C544.505 329.181 543.609 350.856 543.49 373.6C543.558 397.057 543.411 420.512 543.058 443.961L542.63 627.548ZM306.857 661.328C316.116 661.259 326.143 661.117 335.381 661.296C358.959 660.942 382.752 661.572 406.323 661.356C426.191 661.172 445.548 660.566 465.462 661.324C465.149 653.355 465.365 644.863 465.37 636.835L465.494 588.548L465.931 439.394L466.059 388.969C466.101 368.244 466.753 349.268 462.388 328.778C455.165 294.86 438.528 265.938 413.413 242.113C377.419 207.97 333.354 195.705 284.493 195.573C245.865 197.53 205.574 203.876 172.056 224.406C165.656 228.326 158.158 233.368 153.185 239.027C152.182 240.167 150.936 241.809 150.957 243.414C150.975 244.805 151.919 245.903 152.972 246.698C155.235 248.406 181.923 249.365 188.021 250.241C195.836 251.364 203.75 252.64 211.339 254.851C257.602 268.322 296.605 304.505 305.531 353.082C308.31 368.204 307.764 383.847 307.682 399.153L307.238 454.227L306.857 661.328ZM73.6636 661.287L160.436 661.342C175.609 661.085 190.828 661.324 206.014 661.328C210.869 661.328 225.828 660.791 229.337 661.425C228.743 639.156 229.168 615.113 229.182 592.748L229.512 456.975L229.836 409.892C229.868 398.206 230.423 385.521 228.126 374.12C225.166 359.062 217.579 345.304 206.424 334.767C191.116 320.245 170.653 312.423 149.563 313.03C148.666 313.059 147.102 313.083 146.238 313.192C109.509 316.58 79.7222 340.729 74.3165 378.003C72.5705 390.045 73.3952 406.124 73.4035 418.54L73.4155 488.885L73.4086 602.076L73.4191 638.922C73.4269 646.017 73.2436 654.33 73.6636 661.287Z" fill="#78735E"/>
</svg>
